<svg id="Layer_1" data-name="Layer 1" xmlns="http://www.w3.org/2000/svg" xmlns:xlink="http://www.w3.org/1999/xlink" viewBox="0 0 557.7 558.81"><defs><style>.cls-1{fill:#fff;}</style><symbol id="shellwhale" data-name="shellwhale" viewBox="0 0 60 60.12"><path class="cls-1" d="M0,0H60V60.12H0ZM9.55,25.94c-.11,0-.18.06-.21.1-2.16,2.5-3.57,5.24-3.38,8.7a16.82,16.82,0,0,0,1.88,6.94,23.73,23.73,0,0,0,6,7.27A23.76,23.76,0,0,0,33.61,54.3a23.78,23.78,0,0,0,14.52-8.11,24,24,0,0,0,5.39-10.84,23.68,23.68,0,0,0,.33-8,5.4,5.4,0,0,0-5.54-5,16.63,16.63,0,0,0-5.7,1c-2.63,1-5.2,2.07-7.78,3.16-4.27,1.81-8.5,3.7-12.79,5.47a18.09,18.09,0,0,1-7.82,1.57,4.26,4.26,0,0,1-2.58-.82,5.16,5.16,0,0,1-1.91-4C9.68,27.79,9.61,26.88,9.55,25.94Zm16-20a23.26,23.26,0,0,0-14,7.57,24.41,24.41,0,0,0-5.14,9c.15,0,.2,0,.23,0,.29-.17.57-.37.87-.53a6.62,6.62,0,0,1,6-.46,31.38,31.38,0,0,1,3.43,1.72,12.93,12.93,0,0,0,7.49,1.91,8.48,8.48,0,0,0,3-.75c-.23-.11-.36-.19-.5-.24a3.48,3.48,0,0,1-2.14-2.05c-.34-.81-.66-1.63-.95-2.46-.54-1.55-1.13-3.05-2.66-3.92,0,0,0-.08,0-.11,1.7-1.77,1.72-1.77,2.23-4C23.83,9.66,24.14,7.65,25.54,5.91Z"/><path d="M9.55,25.94c.06.94.13,1.85.18,2.75a5.16,5.16,0,0,0,1.91,4,4.26,4.26,0,0,0,2.58.82A18.09,18.09,0,0,0,22,31.92c4.29-1.77,8.52-3.66,12.79-5.47,2.58-1.09,5.15-2.19,7.78-3.16a16.63,16.63,0,0,1,5.7-1,5.4,5.4,0,0,1,5.54,5,23.68,23.68,0,0,1-.33,8.05,24,24,0,0,1-5.39,10.84A23.78,23.78,0,0,1,33.61,54.3,23.76,23.76,0,0,1,13.82,49a23.73,23.73,0,0,1-6-7.27A16.82,16.82,0,0,1,6,34.74c-.19-3.46,1.22-6.2,3.38-8.7C9.37,26,9.44,26,9.55,25.94Z"/><path d="M25.54,5.91c-1.4,1.74-1.71,3.75-2.16,5.71-.51,2.18-.53,2.18-2.23,4,0,0,0,.09,0,.11,1.53.87,2.12,2.37,2.66,3.92.29.83.61,1.65.95,2.46a3.48,3.48,0,0,0,2.14,2.05c.14.05.27.13.5.24a8.48,8.48,0,0,1-3,.75,12.93,12.93,0,0,1-7.49-1.91,31.38,31.38,0,0,0-3.43-1.72,6.62,6.62,0,0,0-6,.46c-.3.16-.58.36-.87.53,0,0-.08,0-.23,0a24.41,24.41,0,0,1,5.14-9A23.26,23.26,0,0,1,25.54,5.91Z"/></symbol></defs><title>a</title><use width="60" height="60.12" transform="translate(0 0) scale(9.29)" xlink:href="#shellwhale"/></svg>