<!DOCTYPE svg PUBLIC "-//W3C//DTD SVG 20010904//EN" "http://www.w3.org/TR/2001/REC-SVG-20010904/DTD/svg10.dtd">
<svg version="1.0" xmlns="http://www.w3.org/2000/svg" width="836px" height="448px" viewBox="0 0 8360 4480" preserveAspectRatio="xMidYMid meet">
<g id="layer101" fill="#ffffff" stroke="none">
 <path d="M4111 4470 c-23 -5 -62 -20 -85 -34 -22 -14 -928 -913 -2012 -1998 -2191 -2192 -2009 -1999 -2009 -2143 1 -129 80 -242 197 -281 68 -22 176 -15 238 15 33 17 547 524 1897 1874 l1852 1851 1846 -1851 c1427 -1432 1856 -1857 1893 -1875 72 -35 184 -38 254 -6 76 35 112 70 147 140 26 51 31 73 31 132 0 141 164 -34 -2018 2149 -1759 1760 -1973 1971 -2027 1997 -67 32 -139 43 -204 30z"/>
 </g>

</svg>