<svg xmlns="http://www.w3.org/2000/svg" 
    xmlns:xlink="http://www.w3.org/1999/xlink" version="1.1" x="0px" y="0px" viewBox="0 0 66 82.5" enable-background="new 0 0 66 66" xml:space="preserve">
    <g>
        <g>
            <path d="M33,25c-4.4,0-8,3.6-8,8s3.6,8,8,8s8-3.6,8-8S37.4,25,33,25z M33,39c-3.3,0-6-2.7-6-6s2.7-6,6-6s6,2.7,6,6S36.3,39,33,39z    "/>
        </g>
        <g>
            <path d="M55.2,34h2.9c0.4,1.5,1.8,2.5,3.4,2.5c2,0,3.5-1.6,3.5-3.5s-1.6-3.5-3.5-3.5c-1.6,0-2.9,1.1-3.4,2.5h-2.9V15.7h2.9    c0.4,1.5,1.8,2.5,3.4,2.5c2,0,3.5-1.6,3.5-3.5s-1.6-3.5-3.5-3.5c-1.6,0-2.9,1.1-3.4,2.5h-3.9c-0.6,0-1,0.4-1,1V32h-3.9v-1.1    c0-0.6-0.4-1-1-1h-2.2c-0.3-1.4-0.9-2.7-1.6-4l1.5-1.5c0.4-0.4,0.4-1,0-1.4l-3-3c-0.4-0.4-1-0.4-1.4,0l-1.5,1.5    c-1.2-0.8-2.6-1.3-4-1.7v-2.2c0-0.6-0.4-1-1-1h-4.3c-0.6,0-1,0.4-1,1v2.2c-1.4,0.3-2.7,0.9-4,1.6l-1.5-1.5c-0.4-0.4-1-0.4-1.4,0    l-3,3c-0.4,0.4-0.4,1,0,1.4l1.5,1.5c-0.8,1.2-1.3,2.6-1.6,4h-2.2c-0.6,0-1,0.4-1,1V32h-3.8V14.7c0-0.6-0.4-1-1-1H7.9    c-0.4-1.5-1.8-2.5-3.4-2.5c-2,0-3.5,1.6-3.5,3.5s1.6,3.5,3.5,3.5c1.6,0,2.9-1.1,3.4-2.5h2.9V32H7.9c-0.4-1.5-1.8-2.5-3.4-2.5    C2.6,29.5,1,31,1,33s1.6,3.5,3.5,3.5c1.6,0,2.9-1.1,3.4-2.5h2.9v16.3H7.9c-0.4-1.5-1.8-2.5-3.4-2.5c-2,0-3.5,1.6-3.5,3.5    c0,2,1.6,3.5,3.5,3.5c1.6,0,2.9-1.1,3.4-2.5h3.9c0.6,0,1-0.4,1-1V34h3.8v1.1c0,0.6,0.4,1,1,1h2.2c0.3,1.4,0.9,2.7,1.6,4l-1.5,1.5    c-0.2,0.2-0.3,0.4-0.3,0.7c0,0.3,0.1,0.5,0.3,0.7l3,3c0.4,0.4,1,0.4,1.4,0l1.5-1.5c1.2,0.8,2.6,1.3,4,1.6v2.2c0,0.6,0.4,1,1,1h4.3    c0.6,0,1-0.4,1-1v-2.2c1.4-0.3,2.7-0.9,4-1.6l1.5,1.5c0.4,0.4,1,0.4,1.4,0l3-3c0.4-0.4,0.4-1,0-1.4l-1.5-1.5    c0.8-1.2,1.3-2.6,1.6-4h2.2c0.6,0,1-0.4,1-1V34h3.9v17.3c0,0.6,0.4,1,1,1h3.9c0.4,1.5,1.8,2.5,3.4,2.5c2,0,3.5-1.6,3.5-3.5    c0-2-1.6-3.5-3.5-3.5c-1.6,0-2.9,1.1-3.4,2.5h-2.9V34z M61.5,31.5c0.9,0,1.5,0.7,1.5,1.5c0,0.9-0.7,1.5-1.5,1.5    c-0.9,0-1.5-0.7-1.5-1.5C59.9,32.1,60.6,31.5,61.5,31.5z M61.5,13.1c0.9,0,1.5,0.7,1.5,1.5c0,0.9-0.7,1.5-1.5,1.5    c-0.9,0-1.5-0.7-1.5-1.5C59.9,13.8,60.6,13.1,61.5,13.1z M4.5,16.2c-0.9,0-1.5-0.7-1.5-1.5c0-0.9,0.7-1.5,1.5-1.5s1.5,0.7,1.5,1.5    C6.1,15.5,5.4,16.2,4.5,16.2z M4.5,52.9c-0.9,0-1.5-0.7-1.5-1.5c0-0.9,0.7-1.5,1.5-1.5s1.5,0.7,1.5,1.5    C6.1,52.2,5.4,52.9,4.5,52.9z M4.5,34.5C3.7,34.5,3,33.9,3,33c0-0.9,0.7-1.5,1.5-1.5s1.5,0.7,1.5,1.5C6.1,33.9,5.4,34.5,4.5,34.5z     M47.4,34.1h-2c-0.5,0-0.9,0.4-1,0.8c-0.3,1.7-1,3.3-1.9,4.7c-0.3,0.4-0.2,0.9,0.1,1.3l1.4,1.4L42.3,44l-1.4-1.4    c-0.3-0.3-0.9-0.4-1.3-0.1c-1.4,1-3,1.7-4.7,1.9c-0.5,0.1-0.8,0.5-0.8,1v2h-2.3v-2c0-0.5-0.4-0.9-0.8-1c-1.7-0.3-3.3-0.9-4.7-1.9    c-0.4-0.3-0.9-0.2-1.3,0.1L23.6,44L22,42.3l1.4-1.4c0.3-0.3,0.4-0.9,0.1-1.3c-1-1.4-1.7-3-1.9-4.7c-0.1-0.5-0.5-0.8-1-0.8h-2v-2.3    h2c0.5,0,0.9-0.4,1-0.8c0.3-1.7,0.9-3.3,1.9-4.7c0.3-0.4,0.2-0.9-0.1-1.3L22,23.6l1.6-1.6l1.4,1.4c0.3,0.3,0.9,0.4,1.3,0.1    c1.4-1,3-1.7,4.7-1.9c0.5-0.1,0.8-0.5,0.8-1v-2h2.3v2c0,0.5,0.4,0.9,0.8,1c1.7,0.3,3.3,0.9,4.7,1.9c0.4,0.3,0.9,0.2,1.3-0.1    l1.4-1.4l1.6,1.6l-1.4,1.4c-0.3,0.3-0.4,0.9-0.1,1.3c1,1.4,1.7,3,1.9,4.7c0.1,0.5,0.5,0.8,1,0.8h2V34.1z M61.5,49.8    c0.9,0,1.5,0.7,1.5,1.5c0,0.9-0.7,1.5-1.5,1.5c-0.9,0-1.5-0.7-1.5-1.5C59.9,50.5,60.6,49.8,61.5,49.8z"/>
        </g>
    </g>
</svg>