<svg id="Layer_1" data-name="Layer 1" xmlns="http://www.w3.org/2000/svg" xmlns:xlink="http://www.w3.org/1999/xlink" viewBox="0 0 4304.4 4372.95"><defs><style>.cls-1{fill:#fff;}.cls-2{fill:url(#linear-gradient);}.cls-3{fill:url(#linear-gradient-2);}</style><linearGradient id="linear-gradient" x1="96.2" y1="130.61" x2="380.7" y2="415.12" gradientUnits="userSpaceOnUse"><stop offset="0" stop-color="#5aff15"/><stop offset="0.24" stop-color="#41eb14"/><stop offset="0.75" stop-color="#12c613"/><stop offset="1" stop-color="#00b712"/></linearGradient><linearGradient id="linear-gradient-2" x1="71.16" y1="54.98" x2="200.59" y2="184.41" xlink:href="#linear-gradient"/><symbol id="shellwhale" data-name="shellwhale" viewBox="0 0 463.34 470.71"><path class="cls-1" d="M62.17,133.17H124v-62H62.17ZM72,106.43a.27.27,0,0,1-.21-.11c-2.23-2.57-3.68-5.4-3.49-9a17.38,17.38,0,0,1,1.94-7.15,25.57,25.57,0,0,1,26.57-13,24.49,24.49,0,0,1,15,8.36,24.76,24.76,0,0,1,5.55,11.17,24.33,24.33,0,0,1,.34,8.25,5.57,5.57,0,0,1-5.71,5.16,17.28,17.28,0,0,1-5.87-1c-2.72-1-5.37-2.14-8-3.26-4.4-1.87-8.76-3.82-13.18-5.64a18.64,18.64,0,0,0-8.06-1.62,4.37,4.37,0,0,0-2.66.85,5.27,5.27,0,0,0-2,4.12C72.15,104.52,72.07,105.46,72,106.43ZM88.51,127a24,24,0,0,1-14.44-7.8A25.12,25.12,0,0,1,68.78,110H69c.3.18.59.38.9.55a6.81,6.81,0,0,0,6.19.47,33.24,33.24,0,0,0,3.53-1.77,13.29,13.29,0,0,1,7.72-2,9,9,0,0,1,3.1.77,5.48,5.48,0,0,1-.52.25,3.63,3.63,0,0,0-2.21,2.11c-.35.84-.68,1.68-1,2.54-.55,1.6-1.16,3.15-2.74,4v.12c1.76,1.82,1.78,1.82,2.3,4.12.43,2,.75,4.09,2.2,5.89Z"/><path class="cls-2" d="M32.77,194.2C11.93,218.32-1.67,244.76.17,278.14a162.35,162.35,0,0,0,17.55,67.43,228.87,228.87,0,0,0,57.89,70.14,229.22,229.22,0,0,0,190.92,51.13,229.41,229.41,0,0,0,139.7-78.34,231.61,231.61,0,0,0,52-104.58,228.49,228.49,0,0,0,3.18-77.66A52.09,52.09,0,0,0,408,158a160.4,160.4,0,0,0-55,9.64c-25.37,9.36-50.16,20-75.05,30.49-41.2,17.46-82,35.69-123.4,52.77a174.47,174.47,0,0,1-75.05,15.34,41.09,41.09,0,0,1-24.89-7.91,49.77,49.77,0,0,1-18.43-38.59c-.48-8.68-1.16-17.46-1.74-26.53C33.35,193.82,32.68,193.82,32.77,194.2Z"/><path class="cls-3" d="M53.42,73.32A235.51,235.51,0,0,0,3.83,160.15H6.05c2.8-1.64,5.5-3.57,8.39-5.12a63.85,63.85,0,0,1,57.89-4.43,302.43,302.43,0,0,1,33.09,16.59,124.71,124.71,0,0,0,72.26,18.43,81.74,81.74,0,0,0,28.94-7.24c-2.22-1.06-3.47-1.83-4.82-2.31a33.58,33.58,0,0,1-20.65-19.78c-3.28-7.82-6.37-15.73-9.16-23.73-5.21-15-10.91-29.43-25.67-37.82V93.68c16.4-17.56,16.6-17.56,21.52-38.59,4.34-18.91,7.33-38.3,20.84-55.09A224.44,224.44,0,0,0,53.42,73.32Z"/></symbol></defs><title>gradient-adele</title><use width="463.34" height="470.72" transform="matrix(9.29, 0, 0, -9.29, 0, 4372.95)" xlink:href="#shellwhale"/></svg>