<svg id="Layer_1" data-name="Layer 1" xmlns="http://www.w3.org/2000/svg" viewBox="0 0 67.93 60"><defs><style>.cls-1{fill:#007bb5;}.cls-2{fill:#fff;}</style></defs><title>linkedin-logo</title><polygon points="62.07 48.46 62.93 48.46 62.93 51.13 63.39 51.13 63.39 48.46 64.25 48.46 64.25 48 62.07 48 62.07 48.46"/><polygon points="67.27 48 66.35 50.3 65.44 48 64.78 48 64.78 51.13 65.24 51.13 65.24 48.75 66.2 51.13 66.51 51.13 67.47 48.75 67.47 51.13 67.93 51.13 67.93 48 67.27 48"/><path class="cls-1" d="M56.59,2H5.47A4.38,4.38,0,0,0,1,6.32V57.67A4.38,4.38,0,0,0,5.47,62H56.59A4.4,4.4,0,0,0,61,57.67V6.32A4.4,4.4,0,0,0,56.59,2Z" transform="translate(-1.04 -2)"/><path class="cls-2" d="M9.93,24.5h8.9V53.13H9.93Zm4.45-14.24a5.16,5.16,0,1,1-5.16,5.16,5.16,5.16,0,0,1,5.16-5.16" transform="translate(-1.04 -2)"/><path class="cls-2" d="M24.41,24.5H33v3.91h.12a9.36,9.36,0,0,1,8.42-4.63c9,0,10.67,5.93,10.67,13.64V53.13H43.27V39.21c0-3.33-.06-7.6-4.62-7.6S33.31,35.23,33.31,39V53.13h-8.9Z" transform="translate(-1.04 -2)"/></svg>