<svg xmlns="http://www.w3.org/2000/svg" viewBox="0 0 64 80" x="0px" y="0px">
   <g data-name="Computer network">
      <path d="M7,18h5v3H9v2H21V21H18V18h5a3,3,0,0,0,3-3V5a3,3,0,0,0-3-3H7A3,3,0,0,0,4,5V15A3,3,0,0,0,7,18Zm9,3H14V18h2ZM6,5A1,1,0,0,1,7,4H23a1,1,0,0,1,1,1V15a1,1,0,0,1-1,1H7a1,1,0,0,1-1-1Z"/>
      <path d="M41,18h5v3H43v2H55V21H52V18h5a3,3,0,0,0,3-3V5a3,3,0,0,0-3-3H41a3,3,0,0,0-3,3V15A3,3,0,0,0,41,18Zm9,3H48V18h2ZM40,5a1,1,0,0,1,1-1H57a1,1,0,0,1,1,1V15a1,1,0,0,1-1,1H41a1,1,0,0,1-1-1Z"/>
      <path d="M40,41H24a3,3,0,0,0-3,3V54a3,3,0,0,0,3,3h5v3H26v2H38V60H35V57h5a3,3,0,0,0,3-3V44A3,3,0,0,0,40,41ZM33,60H31V57h2Zm8-6a1,1,0,0,1-1,1H24a1,1,0,0,1-1-1V44a1,1,0,0,1,1-1H40a1,1,0,0,1,1,1Z"/>
      <path d="M62,31H51.816A3,3,0,0,0,50,29.184V25H48v4.184A3,3,0,0,0,46.184,31H34.816a2.982,2.982,0,0,0-5.632,0H17.816A3,3,0,0,0,16,29.184V25H14v4.184A3,3,0,0,0,12.184,31H2v2H12.184a2.982,2.982,0,0,0,5.632,0H29.184A3,3,0,0,0,31,34.816V39h2V34.816A3,3,0,0,0,34.816,33H46.184a2.982,2.982,0,0,0,5.632,0H62ZM15,33a1,1,0,1,1,1-1A1,1,0,0,1,15,33Zm17,0a1,1,0,1,1,1-1A1,1,0,0,1,32,33Zm17,0a1,1,0,1,1,1-1A1,1,0,0,1,49,33Z"/>
      <rect x="14" y="13" width="2" height="2"/>
      <rect x="17" y="13" width="2" height="2"/>
      <rect x="11" y="13" width="2" height="2"/>
      <rect x="48" y="13" width="2" height="2"/>
      <rect x="51" y="13" width="2" height="2"/>
      <rect x="45" y="13" width="2" height="2"/>
      <rect x="31" y="52" width="2" height="2"/>
      <rect x="34" y="52" width="2" height="2"/>
      <rect x="28" y="52" width="2" height="2"/>
   </g>
</svg>