<svg xmlns="http://www.w3.org/2000/svg" data-name="Layer 1" viewBox="0 0 64 80" x="0px" y="0px">
    <title>Protection, security, shield, lock, checklist</title>
    <path d="M55.33,12.06l-23-8a1,1,0,0,0-.66,0l-23,8A1,1,0,0,0,8,13V32C8,51.49,31.43,59.86,31.67,59.94a1,1,0,0,0,.66,0C32.57,59.86,56,51.49,56,32V13A1,1,0,0,0,55.33,12.06ZM54,32c0,16.84-19.23,24.87-22,25.93C29.23,56.87,10,48.84,10,32V13.71L32,6.06l22,7.65Z"/>
    <path d="M31.7,9l-19,6a1,1,0,0,0-.7,1V32c0,15.52,18.85,22.64,19.65,22.94a1,1,0,0,0,.69,0C33.15,54.64,52,47.52,52,32V16a1,1,0,0,0-.7-1l-19-6A1,1,0,0,0,31.7,9ZM50,16.73V32c0,13-15.47,19.89-18,20.92C29.47,51.89,14,45,14,32V16.73L32,11Z"/>
    <path d="M22.8,29.4a1,1,0,0,0-1.6,1.2l6,8a1,1,0,0,0,.69.39H28a1,1,0,0,0,.65-.24l14-12a1,1,0,1,0-1.3-1.52L28.16,36.55Z"/>
</svg>