<svg xmlns="http://www.w3.org/2000/svg" 
    xmlns:xlink="http://www.w3.org/1999/xlink" version="1.1" x="0px" y="0px" viewBox="0 0 64 80" style="enable-background:new 0 0 64 64;" xml:space="preserve">
    <g>
        <path d="M29,21H7c-1.103,0-2,0.897-2,2v30c0,1.103,0.897,2,2,2h22c1.103,0,2-0.897,2-2V23C31,21.897,30.103,21,29,21z M29,23l0,6H7   v-6H29z M7,37v-6h22.001l0,6H7z M29.001,39l0,6H7v-6H29.001z M7,53v-6h22.002l0,6H7z"/>
        <rect x="5" y="57" width="2" height="2"/>
        <rect x="9" y="57" width="2" height="2"/>
        <rect x="13" y="57" width="2" height="2"/>
        <rect x="9" y="25" width="2" height="2"/>
        <rect x="13" y="25" width="2" height="2"/>
        <rect x="17" y="25" width="2" height="2"/>
        <rect x="17" y="33" width="2" height="2"/>
        <rect x="21" y="33" width="2" height="2"/>
        <rect x="25" y="33" width="2" height="2"/>
        <rect x="9" y="41" width="2" height="2"/>
        <rect x="13" y="41" width="2" height="2"/>
        <rect x="17" y="41" width="2" height="2"/>
        <rect x="17" y="49" width="2" height="2"/>
        <rect x="21" y="49" width="2" height="2"/>
        <rect x="25" y="49" width="2" height="2"/>
        <rect x="49" y="57" width="2" height="2"/>
        <rect x="53" y="57" width="6" height="2"/>
        <rect x="49" y="39" width="2" height="2"/>
        <rect x="53" y="39" width="6" height="2"/>
        <path d="M63,27V17h-2.688c-1-2.098-2.979-3.571-5.313-3.917C55,13.055,55,13.027,55,13c0-4.411-3.589-8-8-8   c-1.383,0-2.685,0.353-3.821,0.973C41.155,2.89,37.738,1,34,1c-6.065,0-11,4.935-11,11c0,0.359,0.025,0.717,0.06,1.074   c-2.33,0.317-4.349,1.796-5.364,3.926H6c-2.757,0-5,2.243-5,5v36c0,2.757,2.243,5,5,5h24c2.757,0,5-2.243,5-5V41h4v13   c0,2.757,2.243,5,5,5h1v4h18V53H45v4h-1c-1.654,0-3-1.346-3-3V41h4v4h18V35H45v4h-4V23h4v4H63z M47,55h14v6H47V55z M47,37h14v6H47   V37z M61,25H47v-6h14V25z M33,58c0,1.654-1.346,3-3,3H6c-1.654,0-3-1.346-3-3V22c0-1.654,1.346-3,3-3h24c1.654,0,3,1.346,3,3V58z    M39,39h-4V23h4V39z M34.899,21c-0.465-2.279-2.484-4-4.899-4h-9.997c0.929-1.234,2.399-2,3.997-2c0.879,0,1.743,0.231,2.499,0.668   l1.002-1.73c-0.75-0.434-1.577-0.715-2.431-0.847C25.026,12.729,25,12.365,25,12c0-4.963,4.037-9,9-9   c3.091,0,5.912,1.58,7.561,4.151C39.99,8.612,39,10.69,39,13h2c0-3.309,2.691-6,6-6s6,2.691,6,6c0,0.253-0.022,0.527-0.07,0.863   L52.848,15H54c1.598,0,3.069,0.766,3.998,2H45v4H34.899z"/>
        <rect x="49" y="21" width="2" height="2"/>
        <rect x="53" y="21" width="6" height="2"/>
    </g>
</svg>