<svg xmlns="http://www.w3.org/2000/svg" 
    xmlns:xlink="http://www.w3.org/1999/xlink" version="1.1" x="0px" y="0px" viewBox="0 0 160 200" style="enable-background:new 0 0 160 160;" xml:space="preserve">
    <path d="M19.952,20.048c-1.677,0-3.042,1.364-3.042,3.042c0,1.677,1.364,3.041,3.042,3.041s3.042-1.364,3.042-3.041  C22.994,21.412,21.63,20.048,19.952,20.048z"/>
    <path d="M31.758,20.048c-1.677,0-3.042,1.364-3.042,3.042c0,1.677,1.364,3.041,3.042,3.041c1.678,0,3.042-1.364,3.042-3.041  C34.799,21.412,33.435,20.048,31.758,20.048z"/>
    <path d="M43.563,20.048c-1.678,0-3.042,1.364-3.042,3.042c0,1.677,1.364,3.041,3.042,3.041c1.677,0,3.041-1.364,3.041-3.041  C46.604,21.412,45.24,20.048,43.563,20.048z"/>
    <path d="M51.244,47.275H24.91c-1.381,0-2.5,1.119-2.5,2.5s1.119,2.5,2.5,2.5h26.333c1.381,0,2.5-1.119,2.5-2.5  S52.625,47.275,51.244,47.275z"/>
    <path d="M134.577,47.275H63.244c-1.381,0-2.5,1.119-2.5,2.5s1.119,2.5,2.5,2.5h71.333c1.381,0,2.5-1.119,2.5-2.5  S135.958,47.275,134.577,47.275z"/>
    <path d="M47.516,62.775c0,1.381,1.119,2.5,2.5,2.5h51.561c1.381,0,2.5-1.119,2.5-2.5s-1.119-2.5-2.5-2.5H50.016  C48.635,60.275,47.516,61.394,47.516,62.775z"/>
    <path d="M134.577,60.275h-21c-1.381,0-2.5,1.119-2.5,2.5c0,1.381,1.119,2.5,2.5,2.5h21c1.381,0,2.5-1.119,2.5-2.5  S135.958,60.275,134.577,60.275z"/>
    <path d="M24.91,65.275h13.106c1.381,0,2.5-1.119,2.5-2.5s-1.119-2.5-2.5-2.5H24.91c-1.381,0-2.5,1.119-2.5,2.5  C22.41,64.156,23.53,65.275,24.91,65.275z"/>
    <path d="M67.244,78.275c1.381,0,2.5-1.119,2.5-2.5s-1.119-2.5-2.5-2.5H24.91c-1.381,0-2.5,1.119-2.5,2.5s1.119,2.5,2.5,2.5H67.244z"/>
    <path d="M134.577,73.275H82.91c-1.381,0-2.5,1.119-2.5,2.5s1.119,2.5,2.5,2.5h51.667c1.381,0,2.5-1.119,2.5-2.5  S135.958,73.275,134.577,73.275z"/>
    <path d="M110.461,90.161c-0.883-1.063-2.46-1.206-3.521-0.325l-7.798,6.479c-0.571,0.475-0.902,1.18-0.902,1.923  s0.331,1.448,0.902,1.923l7.798,6.479c0.467,0.388,1.033,0.577,1.597,0.577c0.717,0,1.43-0.308,1.924-0.902  c0.883-1.062,0.737-2.638-0.325-3.521l-5.483-4.557l5.483-4.556C111.197,92.8,111.344,91.224,110.461,90.161z"/>
    <path d="M124.856,106.314c0.494,0.595,1.207,0.902,1.924,0.902c0.563,0,1.13-0.189,1.597-0.577l7.798-6.479  c0.571-0.475,0.902-1.18,0.902-1.923s-0.331-1.448-0.902-1.923l-7.798-6.479c-1.06-0.88-2.638-0.736-3.521,0.325  c-0.883,1.063-0.736,2.639,0.325,3.521l5.483,4.556l-5.483,4.557C124.119,103.677,123.973,105.253,124.856,106.314z"/>
    <path d="M117.746,88.982l-5.663,16.925c-0.438,1.309,0.269,2.726,1.578,3.164c0.263,0.088,0.53,0.13,0.793,0.13  c1.046,0,2.021-0.661,2.371-1.708l5.663-16.925c0.438-1.309-0.269-2.726-1.578-3.164C119.603,86.968,118.184,87.673,117.746,88.982z  "/>
    <path d="M151.395,9.879H8.605c-1.933,0-3.5,1.567-3.5,3.5v107.21c0,1.933,1.567,3.5,3.5,3.5h13.348v-7h-9.848V34.31h135.791v82.779  h-61.88v7h65.379c1.933,0,3.5-1.567,3.5-3.5V13.379C154.895,11.446,153.328,9.879,151.395,9.879z M12.105,29.31V16.879h135.791  V29.31H12.105z"/>
    <path d="M53.984,109.105c-6.332,0-11.483,5.151-11.483,11.483s5.151,11.483,11.483,11.483s11.483-5.151,11.483-11.483  S60.316,109.105,53.984,109.105z M53.984,127.072c-3.575,0-6.483-2.908-6.483-6.483s2.908-6.483,6.483-6.483  s6.483,2.908,6.483,6.483S57.559,127.072,53.984,127.072z"/>
    <path d="M81.016,112.794h-6.881c-0.122-0.318-0.252-0.634-0.389-0.944l4.863-4.863c0.977-0.977,0.977-2.559,0-3.535l-7.488-7.488  c-0.977-0.977-2.559-0.977-3.535,0l-4.863,4.863c-0.311-0.137-0.626-0.267-0.944-0.389v-6.881c0-1.381-1.119-2.5-2.5-2.5h-10.59  c-1.381,0-2.5,1.119-2.5,2.5v6.881c-0.318,0.122-0.634,0.252-0.944,0.389l-4.863-4.863c-0.977-0.977-2.559-0.977-3.535,0  l-7.488,7.488c-0.977,0.977-0.977,2.559,0,3.535l4.863,4.863c-0.136,0.311-0.266,0.626-0.388,0.944h-6.88  c-1.381,0-2.5,1.119-2.5,2.5v10.59c0,1.381,1.119,2.5,2.5,2.5h6.88c0.122,0.318,0.252,0.634,0.388,0.944l-4.863,4.863  c-0.977,0.977-0.977,2.559,0,3.535l7.488,7.488c0.977,0.977,2.559,0.977,3.535,0l4.863-4.863c0.311,0.137,0.626,0.267,0.944,0.389  v6.881c0,1.381,1.119,2.5,2.5,2.5h10.59c1.381,0,2.5-1.119,2.5-2.5v-6.881c0.318-0.122,0.634-0.252,0.944-0.389l4.863,4.863  c0.977,0.977,2.559,0.977,3.535,0l7.488-7.488c0.977-0.977,0.977-2.559,0-3.535l-4.863-4.863c0.137-0.311,0.267-0.626,0.389-0.944  h6.881c1.381,0,2.5-1.119,2.5-2.5v-10.59C83.516,113.913,82.397,112.794,81.016,112.794z M78.516,123.384H72.34  c-1.114,0-2.094,0.737-2.402,1.808c-0.35,1.214-0.824,2.366-1.412,3.427c-0.54,0.976-0.368,2.19,0.42,2.979l4.362,4.362  l-3.953,3.953l-4.362-4.362c-0.787-0.789-2.004-0.959-2.979-0.42c-1.061,0.588-2.213,1.063-3.427,1.412  c-1.07,0.309-1.808,1.288-1.808,2.402v6.177h-5.59v-6.177c0-1.114-0.737-2.094-1.808-2.402c-1.214-0.35-2.366-0.824-3.427-1.412  c-0.976-0.539-2.191-0.369-2.979,0.42l-4.362,4.362l-3.953-3.953l4.362-4.362c0.788-0.788,0.96-2.003,0.42-2.979  c-0.588-1.061-1.063-2.213-1.412-3.427c-0.309-1.07-1.288-1.808-2.402-1.808h-6.176v-5.59h6.176c1.114,0,2.094-0.737,2.402-1.808  c0.35-1.214,0.824-2.366,1.412-3.427c0.54-0.976,0.368-2.19-0.42-2.979l-4.362-4.362l3.953-3.953l4.362,4.362  c0.787,0.789,2.003,0.959,2.979,0.42c1.061-0.588,2.213-1.063,3.427-1.412c1.07-0.309,1.808-1.288,1.808-2.402v-6.177h5.59v6.177  c0,1.114,0.737,2.094,1.808,2.402c1.214,0.35,2.366,0.824,3.427,1.412c0.975,0.539,2.191,0.369,2.979-0.42l4.362-4.362l3.953,3.953  l-4.362,4.362c-0.788,0.788-0.96,2.003-0.42,2.979c0.588,1.061,1.063,2.213,1.412,3.427c0.309,1.07,1.288,1.808,2.402,1.808h6.177  v5.59H78.516z"/>
</svg>